<svg viewBox="0 0 20 15" xmlns="http://www.w3.org/2000/svg"><path d="m.1 7.2 9.5-6.7c.1-.1.2-.1.4 0 .1.1.2.2.2.3v6.3l9.3-6.6c.1-.1.2-.1.4 0 0 0 .1.1.1.3v13.5c0 .1-.1.3-.2.3s-.1 0-.2 0-.1 0-.2-.1l-9.3-6.6v6.3c0 .1-.1.3-.2.3s-.1 0-.2 0-.1 0-.2-.1l-9.4-6.6c0-.1-.1-.2-.1-.3s.1-.2.1-.3z" fill="#545554"/><path d="m19.9 7.2-9.5-6.7c-.1-.1-.2-.1-.4 0-.1 0-.2.1-.2.3v6.3l-9.2-6.6c-.1-.1-.2-.1-.4 0-.1 0-.2.1-.2.3v13.5c0 .1.1.3.2.3h.2c.1 0 .1 0 .2-.1l9.3-6.6v6.3c0 .1.1.3.2.3h.2c.1 0 .1 0 .2-.1l9.5-6.7c-.1 0 0-.1 0-.2s-.1-.2-.1-.3z" fill="#4a494a"/></svg>