<svg viewBox="0 0 24 16" xmlns="http://www.w3.org/2000/svg"><path d="m18.2 15.3c-.2 0-.4-.1-.6-.3-.3-.3-.3-.9 0-1.2 1.5-1.5 2.4-3.6 2.4-5.8s-.9-4.3-2.4-5.9c-.3-.3-.3-.9 0-1.2s.9-.3 1.2 0c1.9 1.9 2.9 4.4 2.9 7.1s-1 5.2-2.9 7.1c-.2.1-.4.2-.6.2zm-3.1-1.6c-.2 0-.4-.1-.6-.3-.3-.3-.3-.9 0-1.2 2.3-2.3 2.3-6.1 0-8.5-.3-.3-.3-.9 0-1.2s.9-.3 1.2 0c1.5 1.5 2.3 3.4 2.3 5.5s-.8 4-2.3 5.5c-.1.1-.3.2-.6.2zm-3-1.6c-.2 0-.4-.1-.6-.3-.3-.3-.3-.9 0-1.2 1.4-1.4 1.4-3.8 0-5.3-.3-.3-.3-.9 0-1.2s.9-.3 1.2 0c2.1 2.1 2.1 5.6 0 7.7-.2.2-.4.3-.6.3z" fill="#3a3b3b"/><path d="m9.7 16c-.1 0-.3-.1-.4-.2l-4.4-4.4h-2c-.3 0-.6-.3-.6-.6v-5.7c0-.3.3-.6.6-.6h2l4.4-4.4c.2-.1.4-.1.6-.1.2.1.4.3.4.5v14.9c0 .2-.1.4-.4.5 0 .1-.1.1-.2.1z" fill="#3a3b3b"/><path d="m15.8 12.1c-.2 0-.4-.1-.6-.3-.3-.3-.3-.9 0-1.2 1.4-1.4 1.4-3.8 0-5.3-.3-.3-.3-.9 0-1.2s.9-.3 1.2 0c2.1 2.1 2.1 5.6 0 7.7-.2.2-.4.3-.6.3z" fill="#4d4d4d"/><path d="m13.4 16c-.1 0-.3-.1-.4-.2l-4.4-4.4h-2c-.3 0-.6-.3-.6-.6v-5.7c0-.3.3-.6.6-.6h2l4.4-4.3c.2-.2.4-.2.6-.2.3.1.4.3.4.6v14.9c0 .2-.1.4-.4.5 0 0-.1 0-.2 0z" fill="#4d4d4d"/><path d="m15.4 16c-.1 0-.3-.1-.4-.2l-4.4-4.4h-2c-.3 0-.6-.3-.6-.6v-5.7c0-.3.3-.6.6-.6h2l4.4-4.3c.2-.2.4-.2.6-.2.3.1.4.3.4.6v14.9c0 .2-.1.4-.4.5 0 0-.1 0-.2 0z" fill="#525252"/></svg>