<svg viewBox="0 0 24 16" xmlns="http://www.w3.org/2000/svg"><g fill="#545554"><path d="m5.7 6.2c-.5 0-.9.2-1.2.5-.3.4-.5.8-.5 1.3s.2.9.5 1.3.7.5 1.2.5.9-.2 1.2-.5c.4-.4.5-.8.5-1.3s-.2-.9-.5-1.3c-.3-.3-.7-.5-1.2-.5z"/><path d="m5.7 1.3c-.5 0-.9.2-1.2.5-.3.4-.5.8-.5 1.3s.2.9.5 1.3.7.6 1.2.6.9-.2 1.2-.5c.3-.4.5-.8.5-1.3s-.2-.9-.5-1.3-.7-.6-1.2-.6z"/><path d="m5.7 11c-.5 0-.9.2-1.2.5-.3.4-.5.9-.5 1.4s.2.9.5 1.3.7.5 1.2.5.9-.2 1.2-.5c.3-.4.5-.8.5-1.3s-.2-.9-.5-1.3-.7-.6-1.2-.6z"/><path d="m19.9 2c-.1-.1-.1-.1-.2-.1h-10.8c-.1 0-.1 0-.2.1s-.1.1-.1.2v1.8c0 .1 0 .2.1.2.1.1.1.1.2.1h10.9c.1 0 .1 0 .2-.1 0 0 0-.1 0-.2v-1.8c0-.1 0-.1-.1-.2z"/><path d="m19.7 6.8h-10.8c-.1 0-.1 0-.2.1-.1 0-.1.1-.1.2v1.8c0 .1 0 .2.1.2.1.1.1.1.2.1h10.9c.1 0 .1 0 .2-.1 0 0 0-.1 0-.2v-1.8c0-.1 0-.2-.1-.2 0-.1-.1-.1-.2-.1z"/><path d="m19.7 11.6h-10.8c-.1 0-.1 0-.2.1s-.1.1-.1.2v1.8c0 .1 0 .2.1.2.1.1.1.1.2.1h10.9c.1 0 .1 0 .2-.1s.1-.1.1-.2v-1.7c0-.1 0-.2-.1-.2-.1-.1-.2-.2-.3-.2z"/></g><path d="m10.4 7.7c-.3-.4-.9-.4-1.2 0-.4.3-.4.9 0 1.3l1.2 1.2h-5.2c-1.9 0-3.5-1.6-3.5-3.5s1.6-3.5 3.5-3.5h4c.5 0 .9-.4.9-.9s-.4-.9-.9-.9h-4c-2.9-.1-5.2 2.3-5.2 5.2 0 3 2.3 5.4 5.2 5.4h5.1l-1.2 1.2c-.3.4-.3.9 0 1.3.2.2.4.3.6.3s.5-.1.6-.3l2.7-2.7c.3-.4.3-.9 0-1.3z" fill="#5b5c5c"/><path d="m18.8 4h-5.1l1.2-1.2c.3-.4.3-.9 0-1.3s-.9-.4-1.2 0l-2.7 2.7c-.3.4-.3.9 0 1.3l2.7 2.7c.2.2.4.3.6.3s.5-.1.6-.3c.3-.4.3-.9 0-1.3l-1.2-1.2h5.1c1.9 0 3.5 1.6 3.5 3.5s-1.6 3.5-3.5 3.5h-4c-.5 0-.9.4-.9.9s.4.9.9.9h4c2.9 0 5.2-2.4 5.2-5.3 0-2.8-2.3-5.2-5.2-5.2z" fill="#5b5c5c"/><path d="m11.3 8.5c.3-.7.5-1.3.7-1.7.2-.3.3-.6.4-.8s.3-.4.5-.6.4-.4.7-.5c.2-.1.5-.1.8-.1h2.4v1.9c0 .1 0 .2.1.2.1.1.2.1.3.1s.2 0 .2-.1l3-3.2c.1-.1.1-.1.1-.2s0-.2-.1-.2l-3-3.2c-.1-.1-.2-.1-.2-.1-.1 0-.2 0-.2.1-.1.1-.1.1-.1.2v1.9h-2.4c-.4 0-.8.1-1.2.2s-.7.2-1 .4-.6.4-.9.7-.5.6-.7.8c-.2.3-.4.6-.6 1-.3.4-.4.8-.6 1.1-.1.3-.3.7-.4 1.1-.3.7-.6 1.3-.8 1.7-.1.3-.3.6-.4.8s-.3.4-.5.6-.4.4-.7.5c-.2.1-.5.1-.8.1h-2.1c-.1 0-.2 0-.2.1-.1.1-.1.1-.1.2v1.9c0 .1 0 .2.1.2.1.1.1.1.2.1h2.1c.4 0 .8-.1 1.2-.2s.7-.2 1-.4c.3-.1.6-.3.9-.6s.5-.6.7-.8c.2-.3.4-.6.6-1s.4-.8.5-1.1c.2-.3.3-.7.5-1.1z" fill="#595858"/><path d="m3.8 4.8h2.1c.3 0 .5 0 .8.1.2.1.4.3.6.4s.3.3.5.6c.2.2.3.5.4.6.1.2.2.4.4.7.4-1.2.8-2.1 1.2-2.7-1-1.5-2.3-2.3-3.9-2.3h-2.1c-.1 0-.2 0-.2.1-.1.1-.1.2-.1.3v1.9c0 .1 0 .2.1.2 0 .1.1.1.2.1z" fill="#595858"/><path d="m17.4 9.1c-.1-.1-.2-.1-.2-.1-.1 0-.2 0-.2.1-.1.1-.1.1-.1.2v1.9h-2.4c-.3 0-.5 0-.8-.1-.2-.1-.4-.2-.6-.4-.2-.1-.3-.3-.5-.6-.2-.2-.3-.5-.4-.6-.1-.2-.2-.4-.4-.7-.5 1.2-.9 2.1-1.3 2.7.2.3.3.5.5.7l.5.5c.2.2.4.3.6.4s.4.2.6.3.4.1.6.2c.2 0 .4.1.6.1s.4 0 .7.1h.7.8.8v1.9c0 .1 0 .2.1.2 0 .1.1.1.2.1s.2 0 .2-.1l3-3.2c.1-.1.1-.1.1-.2s0-.2-.1-.2z" fill="#595858"/></svg>