<?xml version="1.0" standalone="no"?>
<!DOCTYPE svg PUBLIC "-//W3C//DTD SVG 1.1//EN" "http://www.w3.org/Graphics/SVG/1.1/DTD/svg11.dtd" >
<svg xmlns="http://www.w3.org/2000/svg">
<metadata>Generated by IcoMoon</metadata>
<defs>
<font id="icomoon" horiz-adv-x="1024">
<font-face units-per-em="1024" ascent="960" descent="-64" />
<missing-glyph horiz-adv-x="1024" />
<glyph unicode="&#x20;" horiz-adv-x="512" d="" />
<glyph unicode="&#xe900;" d="M0 960h1024v-1024h-1024v1024z" />
<glyph unicode="&#xe901;" d="M268.512 435.499c8.32 8.32 19.243 12.501 30.165 12.501s21.845-4.181 30.165-12.501l140.501-140.501v409.003c0 23.552 19.115 42.667 42.667 42.667s42.667-19.115 42.667-42.667v-409.003l140.501 140.501c16.683 16.683 43.648 16.683 60.331 0s16.683-43.648 0-60.331l-213.333-213.333c-16.683-16.683-43.648-16.683-60.331 0l-213.333 213.333c-16.683 16.683-16.683 43.648 0 60.331z" />
<glyph unicode="&#xe902;" d="M0 960h1024v-1024h-1024v1024z" />
<glyph unicode="&#xe903;" d="M499.515 691.493c8.32-8.32 12.501-19.243 12.501-30.165s-4.181-21.845-12.501-30.165l-140.501-140.501h409.003c23.552 0 42.667-19.115 42.667-42.667s-19.115-42.667-42.667-42.667h-409.003l140.501-140.501c16.683-16.683 16.683-43.648 0-60.331s-43.648-16.683-60.331 0l-213.333 213.333c-16.683 16.683-16.683 43.648 0 60.331l213.333 213.333c16.683 16.683 43.648 16.683 60.331 0z" />
<glyph unicode="&#xe904;" d="M0 960h1024v-1024h-1024v1024z" />
<glyph unicode="&#xe905;" d="M524.507 204.496c-8.32 8.32-12.501 19.243-12.501 30.165s4.181 21.845 12.501 30.165l140.501 140.501h-409.003c-23.552 0-42.667 19.115-42.667 42.667s19.115 42.667 42.667 42.667h409.003l-140.501 140.501c-16.683 16.683-16.683 43.648 0 60.331s43.648 16.683 60.331 0l213.333-213.333c16.683-16.683 16.683-43.648 0-60.331l-213.333-213.333c-16.683-16.683-43.648-16.683-60.331 0z" />
<glyph unicode="&#xe906;" d="M0 960h1024v-1024h-1024v1024z" />
<glyph unicode="&#xe907;" d="M755.509 460.491c-8.32-8.32-19.243-12.501-30.165-12.501s-21.845 4.181-30.165 12.501l-140.501 140.501v-409.003c0-23.552-19.115-42.667-42.667-42.667s-42.667 19.115-42.667 42.667v409.003l-140.501-140.501c-16.683-16.683-43.648-16.683-60.331 0s-16.683 43.648 0 60.331l213.333 213.333c16.683 16.683 43.648 16.683 60.331 0l213.333-213.333c16.683-16.683 16.683-43.648 0-60.331z" />
<glyph unicode="&#xe908;" d="M0 960h1024v-1024h-1024v1024z" />
<glyph unicode="&#xe909;" d="M768 874.667h-512c-23.595 0-42.667-19.115-42.667-42.667v-128h597.333v128c0 23.552-19.072 42.667-42.667 42.667v0zM213.333 618.667h597.333v-554.667c0-14.805-7.68-28.501-20.267-36.309-6.827-4.224-14.592-6.357-22.4-6.357-6.528 0-13.056 1.493-19.072 4.48l-236.928 118.485-236.928-118.485c-13.269-6.528-28.928-5.888-41.472 1.877-12.587 7.808-20.267 21.504-20.267 36.309v554.667z" />
<glyph unicode="&#xe90a;" d="M0 960h1024v-1024h-1024v1024z" />
<glyph unicode="&#xe90b;" d="M243.503 435.503c-16.662 16.662-43.677 16.662-60.34 0s-16.662-43.677 0-60.34l170.667-170.667c16.662-16.662 43.677-16.662 60.34 0l426.667 426.667c16.662 16.662 16.662 43.677 0 60.34s-43.677 16.662-60.34 0l-396.497-396.497-140.497 140.497z" />
<glyph unicode="&#xe90c;" d="M0 960h1024v-1024h-1024v1024z" />
<glyph unicode="&#xe90d;" d="M512 508.841l-182.496 182.496c-16.921 16.921-44.067 16.827-60.867 0.027-16.918-16.918-16.789-44.052 0.027-60.867l182.496-182.496-182.496-182.496c-16.921-16.921-16.827-44.067-0.027-60.867 16.918-16.918 44.052-16.789 60.867 0.027l182.496 182.496 182.496-182.496c16.921-16.921 44.067-16.827 60.867-0.027 16.918 16.918 16.789 44.052-0.027 60.867l-182.496 182.496 182.496 182.496c16.921 16.921 16.827 44.067 0.027 60.867-16.918 16.918-44.052 16.789-60.867-0.027l-182.496-182.496z" />
<glyph unicode="&#xe90e;" d="M0 960h1024v-1024h-1024v1024z" />
<glyph unicode="&#xe90f;" d="M213.333 832h597.333c72.193 0 128-56.589 128-128v-426.667c0-94.123-33.877-128-128-128h-372.181l-146.199-156.25c0 0-17.87-14.417-36.286-14.417-25.755 0-42.667 19-42.667 42.667v128c-70.969 0-128 60.672-128 128v426.667c0 68.208 59.953 128 128 128zM682.667 448c23.564 0 42.667 19.103 42.667 42.667s-19.103 42.667-42.667 42.667c-23.564 0-42.667-19.103-42.667-42.667s19.103-42.667 42.667-42.667zM512 448c23.564 0 42.667 19.103 42.667 42.667s-19.103 42.667-42.667 42.667c-23.564 0-42.667-19.103-42.667-42.667s19.103-42.667 42.667-42.667zM341.333 448c23.564 0 42.667 19.103 42.667 42.667s-19.103 42.667-42.667 42.667c-23.564 0-42.667-19.103-42.667-42.667s19.103-42.667 42.667-42.667z" />
<glyph unicode="&#xe910;" glyph-name="eye" d="M512 768c-223.319 0-416.882-130.041-512-320 95.118-189.959 288.681-320 512-320 223.312 0 416.875 130.041 512 320-95.115 189.959-288.688 320-512 320zM764.45 598.297c60.162-38.375 111.143-89.774 149.433-150.297-38.293-60.521-89.273-111.922-149.435-150.297-75.593-48.217-162.889-73.703-252.448-73.703s-176.857 25.486-252.453 73.703c-60.158 38.373-111.138 89.771-149.431 150.297 38.293 60.523 89.273 111.925 149.433 150.297 3.918 2.501 7.877 4.921 11.861 7.301-9.959-27.328-15.41-56.823-15.41-87.595 0-141.383 114.615-256 256-256s256 114.617 256 256c0 30.775-5.451 60.267-15.408 87.598 3.977-2.377 7.938-4.802 11.858-7.303v0zM512 544c0-53.019-42.981-96-96-96s-96 42.981-96 96 42.981 96 96 96 96-42.983 96-96z" />
<glyph unicode="&#xe911;" d="M0 960h1024v-1024h-1024v1024z" />
<glyph unicode="&#xe912;" d="M680.144 279.1c55.907 55.708 87.856 131.053 87.856 211.567 0 164.949-133.718 298.667-298.667 298.667s-298.667-133.718-298.667-298.667c0-164.949 133.718-298.667 298.667-298.667 39.252 0 77.381 7.553 112.874 22.053 21.814 8.912 46.722-1.547 55.634-23.361s-1.547-46.722-23.361-55.634c-45.694-18.668-94.78-28.391-145.146-28.391-212.077 0-384 171.923-384 384s171.923 384 384 384c212.077 0 384-171.923 384-384 0-88.873-30.374-173.013-84.484-240.336l157.208-156.049c16.724-16.601 16.824-43.615 0.223-60.339s-43.615-16.824-60.339-0.223l-184.934 183.57c-13.649 13.548-15.356 47.37-0.864 61.811z" />
<glyph unicode="&#xe913;" d="M0 960h1024v-1024h-1024v1024z" />
<glyph unicode="&#xe914;" d="M42.667 149.333c0 23.564 19.426 42.667 42.317 42.667h768.699c23.371 0 42.317-18.938 42.317-42.667 0-23.564-19.426-42.667-42.317-42.667h-768.699c-23.371 0-42.317 18.938-42.317 42.667zM42.667 448c0 23.564 18.75 42.667 42.772 42.667h853.123c23.622 0 42.772-18.938 42.772-42.667 0-23.564-18.75-42.667-42.772-42.667h-853.123c-23.622 0-42.772 18.938-42.772 42.667zM42.667 746.667c0 23.564 18.971 42.667 42.704 42.667h597.259c23.585 0 42.704-18.938 42.704-42.667 0-23.564-18.971-42.667-42.704-42.667h-597.259c-23.585 0-42.704 18.938-42.704 42.667z" />
<glyph unicode="&#xe915;" d="M0 960h1024v-1024h-1024v1024z" />
<glyph unicode="&#xe916;" d="M936.566 569.337c-5.078 15.44-18.549 26.731-34.731 29.083l-242.641 35.156-108.581 219.149c-14.546 29.254-62.704 29.254-77.251 0l-108.538-219.149-242.684-35.156c-16.182-2.352-29.609-13.643-34.688-29.083-5.078-15.482-0.861-32.462 10.802-43.838l175.719-170.606-41.487-240.876c-2.797-16.081 3.83-32.291 17.129-41.871 13.298-9.538 30.814-10.821 45.318-3.208l217.077 113.681 217.077-113.681c6.283-3.293 13.169-4.918 20.055-4.918 8.909 0 17.774 2.737 25.219 8.126 13.298 9.58 19.926 25.79 17.172 41.871l-41.487 240.876 175.676 170.606c11.706 11.377 15.881 28.356 10.845 43.838z" />
<glyph unicode="&#xe917;" d="M0 960h1024v-1024h-1024v1024z" />
<glyph unicode="&#xe918;" d="M853.333 618.667h-170.667v-170.667c0-47.104-38.229-85.333-85.333-85.333h-213.333v-85.333c0-47.061 38.272-85.333 85.333-85.333h281.003l115.499-115.499c8.149-8.149 19.072-12.501 30.165-12.501 5.504 0 11.051 1.067 16.341 3.243 15.957 6.613 26.325 22.187 26.325 39.424v426.667c0 47.061-38.272 85.333-85.333 85.333v0zM384 405.333h-110.336l-115.499-115.499c-8.149-8.149-19.072-12.501-30.165-12.501-5.504 0-11.051 1.067-16.341 3.243-15.957 6.613-26.325 22.187-26.325 39.424v426.667c0 47.061 38.272 85.333 85.333 85.333h384c47.061 0 85.333-38.272 85.333-85.333v-256c0-47.061-38.272-85.333-85.333-85.333h-170.667z" />
<glyph unicode="&#xe919;" d="M0 960h1024v-1024h-1024v1024z" />
<glyph unicode="&#xe91a;" d="M305.707 552.576c-46.933 71.339-21.589 144.171 0.768 176 13.483 19.243 40.149 23.936 59.435 10.325 19.115-13.44 23.851-39.808 10.624-59.051-2.901-4.352-25.472-40.96 0.469-80.384 12.971-19.712 7.467-46.165-12.203-59.093-7.253-4.736-15.36-7.040-23.424-7.040-13.867 0-27.477 6.784-35.669 19.243zM647.509 600.192c2.901 4.352 25.429 40.96-0.469 80.384-12.971 19.669-7.467 46.165 12.203 59.093 19.755 12.928 46.165 7.424 59.093-12.203 46.933-71.381 21.589-144.213-0.768-176-8.277-11.819-21.504-18.133-34.944-18.133-8.448 0-17.024 2.517-24.491 7.765-19.115 13.483-23.851 39.851-10.624 59.093zM476.373 680.576c-46.037 70.016-21.461 143.147 0.299 175.317 13.184 19.541 39.723 24.619 59.264 11.477 19.499-13.227 24.619-39.723 11.435-59.264-2.432-3.797-25.301-41.728 0.299-80.64 46.933-71.381 21.589-144.213-0.768-176-8.277-11.819-21.504-18.133-34.944-18.133-8.448 0-17.024 2.517-24.491 7.765-19.115 13.483-23.851 39.851-10.624 59.093 2.901 4.352 25.429 40.96-0.469 80.384zM853.333 490.667h-682.667c-23.552 0-42.667-19.072-42.667-42.667v-42.667c0-191.403 149.973-341.333 341.333-341.333h85.333c194.603 0 341.333 146.773 341.333 341.333v42.667c0 23.595-19.072 42.667-42.667 42.667z" />
<glyph unicode="&#xe91b;" d="M0 960h1024v-1024h-1024v1024z" />
<glyph unicode="&#xe91c;" d="M642.339 531.668c-87.637-2.378-186.325-33.427-211.968-98.161-8.277-18.292-19.627-57.599-10.24-127.047 68.608-9.513 107.307 2.032 125.355 10.421 70.528 46.226 94.549 125.922 96.853 214.786zM937.848 596.835c-4.011-20.54-21.845-34.767-41.771-34.767-2.773 0-5.589 0.259-8.405 0.865l-71.808 14.53c29.909-76.539 69.803-194.159 69.76-276.969 0-46.832-17.749-90.593-49.963-123.241-32.213-32.691-75.093-50.68-120.661-50.68-45.611 0-88.448 17.989-120.661 50.68-15.104 15.265-26.709 33.124-35.115 52.324-22.613-7.438-52.267-13.189-90.325-13.189-27.051 0-58.283 2.897-94.123 10.162-16.896 3.416-30.123 16.821-33.493 33.945-17.237 87.48-9.472 147.673 3.072 186.851-18.987 8.562-36.608 20.324-51.712 35.675-32.256 32.648-50.005 76.064-50.005 122.29 0 46.183 17.749 89.642 50.005 122.29 32.213 32.648 75.392 50.637 121.6 50.637 81.707 0 197.76-40.389 273.28-70.702l-14.336 72.777c-4.651 23.437 10.325 46.183 33.451 50.853 23.125 4.627 45.611-10.465 50.219-33.902l24.576-124.625 122.965-24.908c23.125-4.713 38.101-27.459 33.451-50.896zM354.766 171.588c-8.32-7.913-16.981-14.443-25.685-19.373-20.608-11.632-28.032-37.967-16.555-58.81 7.808-14.227 22.357-22.227 37.333-22.227 7.040 0 14.165 1.773 20.693 5.449 14.891 8.389 29.269 19.156 42.709 31.999 17.152 16.389 18.005 43.761 1.835 61.145-16.128 17.384-43.136 18.205-60.331 1.816zM249.464 147.458c-13.355 5.362-26.795 13.665-40.021 24.605-18.219 15.135-45.099 12.411-60.032-6.097-14.891-18.508-12.203-45.751 6.016-60.842 20.011-16.605 41.045-29.405 62.592-38.053 5.12-2.076 10.453-3.070 15.701-3.070 16.981 0 33.024 10.335 39.68 27.329 8.704 22.183-2.005 47.307-23.936 56.129zM127.864 194.852c-6.869-4.195-14.464-6.184-21.931-6.184-14.507 0-28.629 7.438-36.608 20.929-7.595 12.8-14.976 26.464-22.144 40.907-10.539 21.362-2.005 47.351 19.115 58.032s46.72 1.989 57.216-19.329c6.101-12.411 12.416-24.086 18.944-35.026 12.117-20.454 5.632-47.005-14.592-59.329z" />
<glyph unicode="&#xe91d;" d="M0 960h1024v-1024h-1024v1024z" />
<glyph unicode="&#xe91e;" d="M661.973 411.435l-213.333-128c-6.741-4.053-14.336-6.101-21.973-6.101-7.253 0-14.464 1.835-20.992 5.547-13.397 7.595-21.675 21.76-21.675 37.12v256c0 15.403 8.277 29.568 21.675 37.163 13.355 7.595 29.781 7.381 42.965-0.555l213.333-128c12.843-7.723 20.693-21.632 20.693-36.608s-7.851-28.843-20.693-36.565zM810.667 832h-597.333c-47.104 0-85.333-38.187-85.333-85.333v-597.333c0-47.104 38.229-85.333 85.333-85.333h597.333c47.147 0 85.333 38.229 85.333 85.333v597.333c0 47.147-38.187 85.333-85.333 85.333z" />
<glyph unicode="&#xe91f;" d="M0 960h1024v-1024h-1024v1024z" />
<glyph unicode="&#xe920;" d="M213.371 490.667c-23.733 0-42.704-19.103-42.704-42.667 0-23.728 19.119-42.667 42.704-42.667h597.259c23.733 0 42.704 19.103 42.704 42.667 0 23.728-19.119 42.667-42.704 42.667h-597.259z" />
<glyph unicode="&#xe921;" d="M0 960h1024v-1024h-1024v1024z" />
<glyph unicode="&#xe922;" d="M469.333 490.667h-255.963c-23.733 0-42.704-19.103-42.704-42.667 0-23.728 19.119-42.667 42.704-42.667h255.963v-255.963c0-23.733 19.103-42.704 42.667-42.704 23.728 0 42.667 19.119 42.667 42.704v255.963h255.963c23.733 0 42.704 19.103 42.704 42.667 0 23.728-19.119 42.667-42.704 42.667h-255.963v255.963c0 23.733-19.103 42.704-42.667 42.704-23.728 0-42.667-19.119-42.667-42.704v-255.963z" />
<glyph unicode="&#xe923;" d="M0 960h1024v-1024h-1024v1024z" />
<glyph unicode="&#xe924;" d="M755.478 179.499c16.683-16.683 16.683-43.648 0-60.331-8.32-8.32-19.243-12.501-30.165-12.501s-21.845 4.181-30.165 12.501l-128 128c-16.683 16.683-16.683 43.648 0 60.331s43.648 16.683 60.331 0l128-128zM926.145 597.632c-16.64 16.64-43.648 16.64-60.331 0l-59.776-59.733c-25.003-25.045-56.576-41.856-86.528-46.165-4.992-0.683-11.648-0.896-18.731-0.597l140.032 140.032c16.683 16.683 16.683 43.648 0 60.331-16.64 16.683-43.648 16.683-60.331 0l-140.075-140.075c-0.299 7.083-0.043 13.739 0.64 18.773 4.309 29.952 21.12 61.525 46.208 86.571l59.691 59.733c16.64 16.683 16.64 43.691 0 60.331-16.683 16.64-43.691 16.683-60.373 0l-59.691-59.733c-38.4-38.357-63.36-86.272-70.315-134.869-5.12-36.053 0.939-70.187 15.659-98.987l-60.245-60.245-60.245 60.245c14.72 28.8 20.779 62.933 15.659 98.987-6.997 48.597-31.915 96.512-70.315 134.869-45.909 45.909-104.832 72.235-161.707 72.235-42.112 0-80.384-15.061-107.691-42.368-33.152-33.195-47.915-82.219-40.448-134.571 6.955-48.555 31.915-96.469 70.315-134.827 45.909-45.867 104.832-72.235 161.707-72.235 26.283 0 50.645 6.485 72.192 17.536l60.203-60.203-183.168-183.168c-16.64-16.683-16.64-43.648 0-60.331 8.363-8.32 19.285-12.501 30.165-12.501 10.923 0 21.845 4.181 30.165 12.501l303.744 303.701c21.632-11.051 46.165-17.493 72.533-17.493 8.661 0 17.536 0.64 26.453 1.877 48.597 6.955 96.512 31.915 134.869 70.315l59.733 59.691c16.683 16.683 16.683 43.691 0 60.373v0z" />
<glyph unicode="&#xe925;" d="M0 960h1024v-1024h-1024v1024z" />
<glyph unicode="&#xe926;" d="M359.298-64v448h-188.632v192h188.632v128c0 160 62.877 256 220.070 256h157.193v-192h-94.316c-62.814 0-94.316-32-94.316-96v-96h220.070l-31.439-192h-188.632v-448h-188.632z" />
<glyph unicode="&#xe927;" d="M0 960h1024v-1024h-1024v1024z" />
<glyph unicode="&#xe928;" d="M512.001 960c-139.052 0-156.488-0.589-211.098-3.081-54.496-2.486-91.716-11.142-124.283-23.799-33.669-13.082-62.222-30.589-90.687-59.053-28.464-28.466-45.971-57.019-59.053-90.687-12.658-32.567-21.314-69.786-23.799-124.283-2.492-54.61-3.081-72.046-3.081-211.098 0-139.050 0.589-156.486 3.081-211.096 2.486-54.496 11.142-91.716 23.799-124.283 13.082-33.669 30.589-62.222 59.053-90.687 28.466-28.464 57.019-45.971 90.687-59.055 32.567-12.656 69.786-21.312 124.283-23.797 54.61-2.492 72.046-3.081 211.098-3.081 139.050 0 156.486 0.589 211.096 3.081 54.496 2.486 91.716 11.142 124.283 23.797 33.669 13.085 62.222 30.591 90.687 59.055 28.464 28.466 45.971 57.019 59.055 90.687 12.656 32.567 21.312 69.786 23.797 124.283 2.492 54.61 3.081 72.046 3.081 211.096 0 139.052-0.589 156.488-3.081 211.098-2.486 54.496-11.142 91.716-23.797 124.283-13.085 33.669-30.591 62.222-59.055 90.687-28.466 28.464-57.019 45.971-90.687 59.053-32.567 12.658-69.786 21.314-124.283 23.799-54.61 2.492-72.046 3.081-211.096 3.081zM512.001 867.748c136.709 0 152.903-0.522 206.891-2.986 49.919-2.276 77.030-10.617 95.071-17.629 23.899-9.288 40.955-20.383 58.87-38.3 17.918-17.915 29.012-34.971 38.3-58.87 7.012-18.042 15.353-45.152 17.629-95.071 2.463-53.988 2.986-70.182 2.986-206.893 0-136.709-0.522-152.903-2.986-206.891-2.276-49.919-10.617-77.030-17.629-95.071-9.288-23.899-20.383-40.955-38.3-58.87-17.915-17.918-34.971-29.012-58.87-38.3-18.042-7.012-45.152-15.353-95.071-17.629-53.98-2.463-70.172-2.986-206.891-2.986-136.721 0-152.911 0.522-206.893 2.986-49.919 2.276-77.030 10.617-95.071 17.629-23.899 9.288-40.955 20.383-58.87 38.3-17.915 17.915-29.012 34.971-38.3 58.87-7.012 18.042-15.353 45.152-17.629 95.071-2.463 53.988-2.986 70.182-2.986 206.891 0 136.711 0.522 152.905 2.986 206.893 2.276 49.919 10.617 77.030 17.629 95.071 9.288 23.899 20.383 40.955 38.3 58.87 17.915 17.918 34.971 29.012 58.87 38.3 18.042 7.012 45.152 15.353 95.071 17.629 53.988 2.463 70.182 2.986 206.893 2.986zM512.001 710.919c-145.208 0-262.92-117.712-262.92-262.92 0-145.206 117.712-262.918 262.92-262.918 145.206 0 262.918 117.712 262.918 262.918 0 145.208-117.712 262.92-262.918 262.92zM512.001 277.333c-94.258 0-170.668 76.41-170.668 170.666 0 94.258 76.41 170.668 170.668 170.668 94.256 0 170.666-76.41 170.666-170.668 0-94.256-76.41-170.666-170.666-170.666zM846.747 721.306c0 33.933-27.508 61.441-61.441 61.441-33.931 0-61.439-27.508-61.439-61.441s27.508-61.439 61.439-61.439c33.933 0 61.441 27.506 61.441 61.439z" />
<glyph unicode="&#xe929;" horiz-adv-x="983" d="M0 960h983.040v-983.040h-983.040v983.040z" />
<glyph unicode="&#xe92a;" horiz-adv-x="983" d="M491.535 960c-271.457 0-491.535-220.048-491.535-491.566 0-201.303 121.009-374.183 294.227-450.175-1.383 34.355-0.246 75.562 8.543 112.805 9.464 39.978 63.24 267.923 63.24 267.923s-15.733 31.374-15.733 77.713c0 72.827 42.283 127.217 94.859 127.217 44.679 0 66.282-33.525 66.282-73.749 0-44.925-28.67-112.19-43.389-174.416-12.322-52.116 26.181-94.644 77.528-94.644 93.139 0 155.856 119.534 155.856 261.316 0 107.704-72.55 188.305-204.499 188.305-149.095 0-241.957-111.145-241.957-235.351 0-42.836 12.629-73.042 32.357-96.426 9.126-10.755 10.386-15.026 7.037-27.379-2.274-9.096-7.682-30.821-9.956-39.425-3.319-12.507-13.336-16.931-24.614-12.291-68.679 27.963-100.636 103.187-100.636 187.752 0 139.6 117.721 307.071 351.29 307.071 187.66 0 311.22-135.821 311.22-281.597 0-192.822-107.274-336.878-265.28-336.878-53.068 0-103.002 28.701-120.057 61.211 0 0-28.578-113.235-34.57-135.083-10.448-37.858-30.852-75.777-49.473-105.307 44.157-13.029 90.865-20.127 139.262-20.127 271.457 0 491.505 220.017 491.505 491.535s-220.048 491.566-491.505 491.566z" />
<glyph unicode="&#xe92b;" d="M0 960h1024v-1024h-1024v1024z" />
<glyph unicode="&#xe92c;" d="M1024 776.203c-37.672-16.704-78.129-28.032-120.698-33.056 43.401 25.952 76.721 67.104 92.404 116.16-40.585-24.032-85.555-41.568-133.405-50.944-38.312 40.8-92.916 66.304-153.378 66.304-116.025 0-210.030-94.016-210.030-210.016 0-16.448 1.792-32.512 5.409-47.872-174.598 8.768-329.384 92.384-433.055 219.456-18.052-31.040-28.39-67.104-28.39-105.6 0-72.896 37.096-137.152 93.428-174.848-34.44 1.12-66.799 10.528-95.125 26.304-0.032-0.896-0.032-1.792-0.032-2.624 0-101.792 72.4-186.688 168.517-205.984-17.604-4.768-36.168-7.36-55.34-7.36-13.571 0-26.694 1.312-39.497 3.744 26.694-83.424 104.311-144.128 196.203-145.856-71.856-56.32-162.468-89.92-260.889-89.92-16.964 0-33.671 0.992-50.123 2.912 92.98-59.552 203.404-94.336 322.054-94.336 386.421 0 597.731 320.032 597.731 597.6 0 9.088-0.256 18.176-0.608 27.2 41.033 29.6 76.625 66.592 104.823 108.736z" />
<glyph unicode="&#xe92d;" d="M0 960h1024v-1024h-1024v1024z" />
<glyph unicode="&#xe92e;" d="M1013.757 666.22c0 0 10.243-88.412 10.243-176.759v-82.842c0-88.444-10.243-176.823-10.243-176.823s-9.987-75.256-40.685-108.386c-38.924-43.47-82.586-43.726-102.592-46.286-143.309-11.011-358.48-11.364-358.48-11.364s-266.259 2.593-348.173 10.947c-22.791 4.545-73.911 3.233-112.899 46.703-30.666 33.13-40.685 108.386-40.685 108.386s-10.243 88.38-10.243 176.823v82.842c0 88.348 10.243 176.759 10.243 176.759s10.019 75.32 40.685 108.482c38.988 43.47 82.586 43.726 102.592 46.19 143.309 11.107 358.224 11.107 358.224 11.107h0.48c0 0 214.947 0 358.256-11.107 20.006-2.465 63.668-2.721 102.592-46.19 30.698-33.162 40.685-108.482 40.685-108.482zM384.123 639.93v-384.12l320.1 192.060-320.1 192.060z" />
</font>
</defs>
</svg>
